<svg width="16" height="16" viewBox="0 0 16 16" fill="none" xmlns="http://www.w3.org/2000/svg">
<path d="M7.68732 0.227576C7.79546 -0.0758589 8.20454 -0.0758586 8.31268 0.227576L10.1477 5.37651C10.1946 5.50815 10.312 5.59762 10.4458 5.60376L15.6802 5.84373C15.9887 5.85787 16.1151 6.26607 15.8735 6.46774L11.7732 9.88993C11.6684 9.97743 11.6235 10.1222 11.6593 10.2576L13.0593 15.5549C13.1418 15.867 12.8109 16.1193 12.5534 15.9405L8.18424 12.9066C8.07254 12.8291 7.92746 12.8291 7.81576 12.9066L3.44662 15.9405C3.18914 16.1193 2.85819 15.867 2.94069 15.5549L4.34068 10.2576C4.37647 10.1222 4.33164 9.97743 4.22681 9.88993L0.126548 6.46774C-0.115087 6.26607 0.0113246 5.85787 0.319795 5.84373L5.55417 5.60376C5.688 5.59762 5.80537 5.50815 5.85228 5.37651L7.68732 0.227576Z" fill="#F5A3B7"/>
</svg>
