<svg width="30" height="30" viewBox="0 0 30 30" fill="none" xmlns="http://www.w3.org/2000/svg">
<g clip-path="url(#clip0_236_9338)">
<path d="M14.9999 0C6.71566 0 0 6.71584 0 14.9999C0 21.3547 3.95361 26.7872 9.53361 28.9728C9.40236 27.786 9.28395 25.9608 9.5857 24.6651C9.85816 23.4945 11.3446 17.2092 11.3446 17.2092C11.3446 17.2092 10.8958 16.3107 10.8958 14.9821C10.8958 12.8964 12.1047 11.3393 13.61 11.3393C14.8897 11.3393 15.5079 12.3002 15.5079 13.4522C15.5079 14.7393 14.6886 16.6634 14.2656 18.4465C13.9123 19.9396 15.0144 21.1571 16.4868 21.1571C19.153 21.1571 21.2023 18.346 21.2023 14.2882C21.2023 10.6968 18.6215 8.18572 14.9367 8.18572C10.6687 8.18572 8.16346 11.3869 8.16346 14.6952C8.16346 15.9845 8.66004 17.3668 9.27979 18.1183C9.40225 18.2668 9.42029 18.3971 9.38385 18.5486C9.26988 19.0224 9.01693 20.0412 8.96719 20.2496C8.90174 20.5242 8.74975 20.5825 8.46557 20.4503C6.59209 19.5782 5.42086 16.8393 5.42086 14.6393C5.42086 9.90756 8.85867 5.56225 15.3319 5.56225C20.5354 5.56225 24.5792 9.27 24.5792 14.2253C24.5792 19.395 21.3197 23.5553 16.7955 23.5553C15.2756 23.5553 13.8466 22.7657 13.3576 21.833C13.3576 21.833 12.6053 24.697 12.423 25.3988C12.0842 26.7018 11.1701 28.3349 10.5587 29.331C11.9623 29.7656 13.4537 29.9999 14.9999 29.9999C23.2844 29.9999 30.0001 23.2844 30.0001 14.9999C30.0001 6.71584 23.2844 0 14.9999 0Z" fill="white"/>
</g>
<defs>
<clipPath id="clip0_236_9338">
<rect width="30" height="30" fill="white"/>
</clipPath>
</defs>
</svg>
