<svg width="15" height="14" viewBox="0 0 15 14" fill="none" xmlns="http://www.w3.org/2000/svg">
<path d="M7.6639 0.199129C7.75853 -0.0663765 8.11647 -0.0663763 8.21109 0.199129L9.81675 4.70445C9.8578 4.81963 9.9605 4.89792 10.0776 4.90329L14.6577 5.11326C14.9276 5.12564 15.0382 5.48281 14.8268 5.65927L11.239 8.65369C11.1473 8.73025 11.1081 8.85691 11.1394 8.97542L12.3644 13.6105C12.4366 13.8837 12.147 14.1044 11.9217 13.948L8.09871 11.2933C8.00097 11.2254 7.87403 11.2254 7.77629 11.2933L3.95329 13.948C3.728 14.1044 3.43842 13.8837 3.51061 13.6105L4.73559 8.97542C4.76691 8.85691 4.72768 8.73025 4.63596 8.65369L1.04823 5.65927C0.836799 5.48281 0.947409 5.12564 1.21732 5.11326L5.7974 4.90329C5.9145 4.89792 6.01719 4.81963 6.05825 4.70445L7.6639 0.199129Z" fill="#DFE1E3"/>
</svg>
