<svg width="30" height="30" viewBox="0 0 30 30" fill="none" xmlns="http://www.w3.org/2000/svg">
<g clip-path="url(#clip0_236_9337)">
<path d="M15 0C23.2843 0 30 6.71572 30 15C30 22.4869 24.5147 28.6925 17.3438 29.8178V19.3359H20.8389L21.5039 15H17.3438V12.1862C17.3438 11.8677 17.3856 11.5514 17.483 11.259C17.7029 10.5985 18.2059 10.0604 19.1482 9.89575C19.3424 9.86182 19.5553 9.84375 19.7882 9.84375H21.6797V6.15234C21.6797 6.15234 19.9631 5.85938 18.322 5.85938C14.8956 5.85938 12.6562 7.93594 12.6562 11.6953V15H8.84766V19.3359H12.6562V29.8178C5.48531 28.6925 0 22.4869 0 15C0 6.71572 6.71572 0 15 0Z" fill="white"/>
</g>
<defs>
<clipPath id="clip0_236_9337">
<rect width="30" height="30" fill="white"/>
</clipPath>
</defs>
</svg>
