<svg width="15" height="15" viewBox="0 0 15 15" fill="none" xmlns="http://www.w3.org/2000/svg">
<path fill-rule="evenodd" clip-rule="evenodd" d="M10.8333 0H4.16667C1.86548 0 0 1.86548 0 4.16667V10.8333C0 13.1345 1.86548 15 4.16667 15H10.8333C13.1345 15 15 13.1345 15 10.8333V4.16667C15 1.86548 13.1345 0 10.8333 0ZM13.5417 10.8333C13.5371 12.3272 12.3272 13.5371 10.8333 13.5417H4.16667C2.67279 13.5371 1.46291 12.3272 1.45833 10.8333V4.16667C1.46291 2.67279 2.67279 1.46291 4.16667 1.45833H10.8333C12.3272 1.46291 13.5371 2.67279 13.5417 4.16667V10.8333ZM11.4583 4.375C11.9186 4.375 12.2917 4.0019 12.2917 3.54167C12.2917 3.08143 11.9186 2.70833 11.4583 2.70833C10.9981 2.70833 10.625 3.08143 10.625 3.54167C10.625 4.0019 10.9981 4.375 11.4583 4.375ZM7.5 3.75C5.42893 3.75 3.75 5.42893 3.75 7.5C3.75 9.57108 5.42893 11.25 7.5 11.25C9.57108 11.25 11.25 9.57108 11.25 7.5C11.2522 6.50475 10.8578 5.54964 10.1541 4.8459C9.45033 4.14216 8.49525 3.74778 7.5 3.75ZM5.20833 7.5C5.20833 8.76567 6.23433 9.79167 7.5 9.79167C8.76567 9.79167 9.79167 8.76567 9.79167 7.5C9.79167 6.23433 8.76567 5.20833 7.5 5.20833C6.23433 5.20833 5.20833 6.23433 5.20833 7.5Z" fill="white"/>
</svg>
