<svg width="30" height="30" viewBox="0 0 30 30" fill="none" xmlns="http://www.w3.org/2000/svg">
<path fill-rule="evenodd" clip-rule="evenodd" d="M30 15C30 23.2843 23.2843 30 15 30C6.71573 30 0 23.2843 0 15C0 6.71573 6.71573 0 15 0C23.2843 0 30 6.71573 30 15ZM23.0727 12.3871C23.0727 17.5815 19.1178 23.575 11.8848 23.575C9.66676 23.575 7.59553 22.9226 5.87494 21.7973C6.18481 21.8381 6.49468 21.8544 6.8127 21.8544C8.65561 21.8544 10.3517 21.2265 11.6972 20.1746C9.97663 20.142 8.52514 19.0085 8.02771 17.4429C8.27235 17.4918 8.51698 17.5162 8.76977 17.5162C9.12856 17.5162 9.47921 17.4673 9.80538 17.3776C8.00325 17.0107 6.64961 15.4287 6.64961 13.5206V13.4716C7.17965 13.7652 7.78308 13.9446 8.42728 13.9609C7.3672 13.2596 6.67408 12.0528 6.67408 10.691C6.67408 9.97338 6.86978 9.29656 7.20411 8.71759C9.14487 11.0987 12.0397 12.6643 15.3096 12.8274C15.2362 12.542 15.2036 12.2403 15.2036 11.9304C15.2036 9.76136 16.965 8 19.1341 8C20.2675 8 21.2868 8.47296 22.0044 9.23948C22.9014 9.06008 23.7413 8.7339 24.4997 8.28541C24.2061 9.20686 23.5864 9.97338 22.771 10.4626C23.5701 10.3648 24.3285 10.1528 25.0297 9.84291C24.4997 10.6339 23.831 11.327 23.0645 11.8815C23.0727 12.0446 23.0727 12.2159 23.0727 12.3871Z" fill="white"/>
</svg>
