<svg width="30" height="30" viewBox="0 0 30 30" fill="none" xmlns="http://www.w3.org/2000/svg">
<g clip-path="url(#clip0_236_9340)">
<path d="M11.6667 15C11.6667 16.8409 13.1591 18.3333 15 18.3333C16.8409 18.3333 18.3333 16.8409 18.3333 15C18.3333 13.159 16.8409 11.6666 15 11.6666C13.1591 11.6666 11.6667 13.159 11.6667 15Z" fill="white"/>
<path fill-rule="evenodd" clip-rule="evenodd" d="M19.0408 6.86011C17.9863 6.81199 17.6701 6.80183 15 6.80183C12.3299 6.80183 12.0136 6.81199 10.9591 6.86011C9.98413 6.90461 9.45464 7.0675 9.10226 7.20441C8.6355 7.38582 8.30238 7.60253 7.95242 7.95246C7.6025 8.30238 7.38578 8.63554 7.20441 9.10226C7.06746 9.45464 6.90457 9.98413 6.86007 10.9591C6.81195 12.0136 6.80179 12.3299 6.80179 15C6.80179 17.6701 6.81195 17.9863 6.86007 19.0408C6.90457 20.0158 7.06746 20.5452 7.20441 20.8976C7.38578 21.3644 7.6025 21.6975 7.95242 22.0474C8.30238 22.3974 8.6355 22.6141 9.10226 22.7955C9.45464 22.9324 9.98413 23.0953 10.9591 23.1398C12.0135 23.1879 12.3296 23.1981 15 23.1981C17.6702 23.1981 17.9865 23.1879 19.0408 23.1398C20.0158 23.0953 20.5452 22.9324 20.8976 22.7955C21.3644 22.6141 21.6975 22.3974 22.0474 22.0474C22.3974 21.6975 22.6141 21.3644 22.7955 20.8976C22.9324 20.5452 23.0953 20.0158 23.1398 19.0408C23.1879 17.9863 23.1981 17.6701 23.1981 15C23.1981 12.3299 23.1879 12.0136 23.1398 10.9591C23.0953 9.98413 22.9324 9.45464 22.7955 9.10226C22.6141 8.63554 22.3974 8.30238 22.0474 7.95246C21.6975 7.60253 21.3644 7.38582 20.8976 7.20441C20.5452 7.0675 20.0158 6.90461 19.0408 6.86011ZM9.8649 15C9.8649 12.1639 12.164 9.86484 15 9.86484C17.8361 9.86484 20.1351 12.1639 20.1351 15C20.1351 17.836 17.8361 20.135 15 20.135C12.164 20.135 9.8649 17.836 9.8649 15ZM21.5379 9.66194C21.5379 10.3247 21.0007 10.8619 20.3379 10.8619C19.6752 10.8619 19.138 10.3247 19.138 9.66194C19.138 8.99921 19.6752 8.46198 20.3379 8.46198C21.0007 8.46198 21.5379 8.99921 21.5379 9.66194Z" fill="white"/>
<path fill-rule="evenodd" clip-rule="evenodd" d="M30 15C30 23.2843 23.2843 30 15 30C6.71573 30 0 23.2843 0 15C0 6.71573 6.71573 0 15 0C23.2843 0 30 6.71573 30 15ZM10.877 5.0602C11.9436 5.01152 12.2841 5 15 5C17.7158 5 18.0563 5.01152 19.1229 5.0602C20.1873 5.10875 20.9142 5.27777 21.5503 5.525C22.2079 5.78055 22.7656 6.1225 23.3215 6.67843C23.8774 7.23433 24.2194 7.79203 24.4749 8.4496C24.7221 9.08566 24.8912 9.81261 24.9397 10.877C24.9884 11.9436 24.9999 12.2841 24.9999 15C24.9999 17.7158 24.9884 18.0563 24.9397 19.1229C24.8912 20.1873 24.7221 20.9142 24.4749 21.5503C24.2194 22.2079 23.8774 22.7656 23.3215 23.3215C22.7656 23.8774 22.2079 24.2194 21.5503 24.4749C20.9142 24.7221 20.1873 24.8912 19.1229 24.9397C18.0563 24.9884 17.7158 24.9999 15 24.9999C12.2841 24.9999 11.9436 24.9884 10.877 24.9397C9.81261 24.8912 9.08566 24.7221 8.44956 24.4749C7.79199 24.2194 7.23429 23.8774 6.6784 23.3215C6.12246 22.7656 5.78051 22.2079 5.52496 21.5503C5.27773 20.9142 5.10871 20.1873 5.06016 19.1229C5.01148 18.0563 5 17.7158 5 15C5 12.2841 5.01148 11.9436 5.06016 10.877C5.10871 9.81261 5.27773 9.08566 5.52496 8.4496C5.78051 7.79203 6.12246 7.23433 6.6784 6.67843C7.23429 6.1225 7.79199 5.78055 8.44956 5.525C9.08566 5.27777 9.81261 5.10875 10.877 5.0602Z" fill="white"/>
</g>
<defs>
<clipPath id="clip0_236_9340">
<rect width="30" height="30" fill="white"/>
</clipPath>
</defs>
</svg>
